<?xml version="1.0" encoding="utf-8"?>
<!-- Generator: Adobe Illustrator 16.0.0, SVG Export Plug-In . SVG Version: 6.00 Build 0)  -->
<!DOCTYPE svg PUBLIC "-//W3C//DTD SVG 1.1//EN" "http://www.w3.org/Graphics/SVG/1.1/DTD/svg11.dtd">
<svg version="1.1" id="Layer_1" xmlns="http://www.w3.org/2000/svg" xmlns:xlink="http://www.w3.org/1999/xlink" x="0px" y="0px"
	 width="48px" height="48px" viewBox="0 0 48 48" enable-background="new 0 0 48 48" xml:space="preserve">
<g>
	<polyline fill="none" stroke="#FFFFFF" stroke-miterlimit="10" points="23.963,43.346 6,43.346 6,8.109 44,8.109 44,24.691 	"/>
	<g>
		<line fill="none" stroke="#FFFFFF" stroke-miterlimit="10" x1="6.346" y1="19.509" x2="43.654" y2="19.509"/>
	</g>
	<line fill="none" stroke="#FFFFFF" stroke-miterlimit="10" x1="13.945" y1="4.654" x2="13.945" y2="14.327"/>
	<line fill="none" stroke="#FFFFFF" stroke-miterlimit="10" x1="25" y1="4.654" x2="25" y2="14.327"/>
	<line fill="none" stroke="#FFFFFF" stroke-miterlimit="10" x1="36.055" y1="4.654" x2="36.055" y2="14.327"/>
	<g>
		<path fill="#FFFFFF" d="M35.018,26.382c4.401,0,7.982,3.58,7.982,7.981s-3.581,7.982-7.982,7.982c-4.4,0-7.98-3.581-7.98-7.982
			S30.617,26.382,35.018,26.382 M35.018,25.382c-4.96,0-8.98,4.021-8.98,8.981c0,4.961,4.021,8.982,8.98,8.982
			c4.961,0,8.982-4.021,8.982-8.982C44,29.403,39.979,25.382,35.018,25.382L35.018,25.382z"/>
	</g>
	<polyline fill-rule="evenodd" clip-rule="evenodd" fill="none" stroke="#FFFFFF" stroke-miterlimit="10" points="33.982,30.219 
		33.982,35.4 38.473,35.4 	"/>
</g>
</svg>
